<?xml version="1.0" encoding="UTF-8"?>
<svg width="200" height="200" viewBox="0 0 200 200" fill="none" xmlns="http://www.w3.org/2000/svg">
  <rect width="200" height="200" rx="16" fill="#F5F7FA"/>
  
  <!-- Grid background -->
  <path d="M0 20H200M0 40H200M0 60H200M0 80H200M0 100H200M0 120H200M0 140H200M0 160H200M0 180H200" stroke="#E9ECF0" stroke-width="1"/>
  <path d="M20 0V200M40 0V200M60 0V200M80 0V200M100 0V200M120 0V200M140 0V200M160 0V200M180 0V200" stroke="#E9ECF0" stroke-width="1"/>
  
  <!-- Documentation icon -->
  <rect x="50" y="40" width="100" height="120" rx="8" fill="#0066CC"/>
  <rect x="65" y="60" width="70" height="6" rx="3" fill="white"/>
  <rect x="65" y="76" width="70" height="6" rx="3" fill="white"/>
  <rect x="65" y="92" width="50" height="6" rx="3" fill="white"/>
  <rect x="65" y="108" width="70" height="6" rx="3" fill="white"/>
  <rect x="65" y="124" width="40" height="6" rx="3" fill="white"/>
  
  <!-- Abstract shapes -->
  <circle cx="40" cy="160" r="15" fill="#FF9900"/>
  <rect x="140" y="25" width="30" height="30" rx="6" fill="#FF9900"/>
  <path d="M35 100L55 80L75 100L95 80" stroke="#FF9900" stroke-width="4" stroke-linecap="round" stroke-linejoin="round"/>
  
  <!-- Tech elements -->
  <g transform="translate(150, 150)">
    <rect x="-15" y="-15" width="30" height="30" rx="4" fill="#0066CC" fill-opacity="0.2"/>
    <path d="M-5 0H5M0 -5V5" stroke="#0066CC" stroke-width="2" stroke-linecap="round"/>
  </g>
  
  <g transform="translate(30, 40)">
    <rect x="-10" y="-10" width="20" height="20" rx="4" fill="#FF9900" fill-opacity="0.2"/>
    <path d="M-5 -5L5 5M-5 5L5 -5" stroke="#FF9900" stroke-width="2" stroke-linecap="round"/>
  </g>
</svg> 